<svg width="142" height="48" viewBox="0 0 142 48" fill="none" xmlns="http://www.w3.org/2000/svg">
<rect width="142" height="48" rx="4" fill="#17191C"/>
<path fill-rule="evenodd" clip-rule="evenodd" d="M84.1258 31.1233C82.6903 31.1233 81.6398 30.4134 81.5189 29.332L79.8485 29.3319C79.954 31.3042 81.5866 32.5519 84.0048 32.5519C86.5894 32.5519 88.2144 31.2742 88.2144 29.2342C88.2144 27.6393 87.2848 26.7406 85.0476 26.2115L83.8462 25.9165C82.4407 25.5692 81.8662 25.1156 81.8662 24.3447C81.8662 23.3774 82.7657 22.7129 84.0803 22.7129C85.3949 22.7129 86.2944 23.3697 86.393 24.4579H88.0403C87.9871 22.5765 86.4076 21.2842 84.1035 21.2842C81.7753 21.2842 80.1358 22.5765 80.1358 24.4579C80.1358 25.9774 81.0653 26.9138 83.0676 27.3974L84.4808 27.7379C85.8939 28.0852 86.4908 28.592 86.4908 29.4383C86.4908 30.4133 85.5012 31.1233 84.1258 31.1233ZM55.696 29.4228H51.5397L50.5415 32.37H48.7811L52.7179 21.4659H54.547L58.4838 32.37H56.6933L55.696 29.4228ZM51.9688 28.0625H55.2633L53.6392 23.2793H53.5938L51.9688 28.0625ZM63.67 32.4528C65.6654 32.4528 66.9877 30.8655 66.9877 28.395C66.9877 25.9314 65.6577 24.3364 63.64 24.3364C62.6017 24.3029 61.6291 24.8429 61.1086 25.7419H61.0786V24.4196H59.499V34.9996H61.1309V31.0619H61.1686C61.667 31.9665 62.6386 32.5067 63.67 32.4528ZM65.3083 28.3955C65.3083 26.7859 64.4765 25.7277 63.2074 25.7277C61.9606 25.7277 61.1219 26.8082 61.1219 28.3955C61.1219 29.9973 61.9606 31.07 63.2074 31.07C64.4765 31.07 65.3083 30.0196 65.3083 28.3955ZM72.418 32.4528C74.4135 32.4528 75.7357 30.8655 75.7357 28.395C75.7357 25.9314 74.4057 24.3364 72.388 24.3364C71.3497 24.3029 70.3772 24.8429 69.8566 25.7419H69.8266V24.4196H68.2471V34.9996H69.8789V31.0619H69.9167C70.4151 31.9665 71.3866 32.5067 72.418 32.4528ZM74.0588 28.3955C74.0588 26.7859 73.227 25.7277 71.9579 25.7277C70.7111 25.7277 69.8724 26.8082 69.8724 28.3955C69.8724 29.9973 70.7111 31.07 71.9579 31.07C73.227 31.07 74.0588 30.0196 74.0588 28.3955ZM91.7358 22.539V24.4204H93.2476V25.7126H91.7358V30.0954C91.7358 30.7762 92.0385 31.0935 92.703 31.0935C92.8825 31.0904 93.0617 31.0778 93.2398 31.0558V32.3403C92.9411 32.3961 92.6374 32.4214 92.3335 32.4158C90.7239 32.4158 90.0962 31.8112 90.0962 30.2694V25.7126H88.9403V24.4204H90.0962V22.539H91.7358ZM97.894 24.3223C95.5967 24.3223 94.1235 25.8941 94.1235 28.3954C94.1235 30.9037 95.5821 32.4686 97.894 32.4686C100.207 32.4686 101.665 30.9037 101.665 28.3954C101.665 25.894 100.199 24.3223 97.894 24.3223ZM100.002 28.3957C100.002 26.6798 99.216 25.6671 97.8937 25.6671C96.5715 25.6671 95.786 26.6875 95.786 28.3957C95.786 30.1184 96.5715 31.1234 97.8937 31.1234C99.216 31.1234 100.002 30.1184 100.002 28.3957H100.002ZM104.567 24.4195H103.011L103.011 32.3695H104.643V27.6541C104.588 27.177 104.745 26.7 105.072 26.3484C105.399 25.9967 105.863 25.8055 106.343 25.825C106.591 25.8178 106.839 25.8511 107.076 25.9236V24.3972C106.893 24.3561 106.705 24.3357 106.517 24.3364C105.62 24.3021 104.822 24.9016 104.605 25.7727H104.567V24.4195ZM114.602 30.035C114.382 31.4782 112.977 32.4686 111.178 32.4686C108.866 32.4686 107.43 30.9191 107.43 28.4332C107.43 25.9395 108.873 24.3223 111.11 24.3223C113.309 24.3223 114.692 25.8332 114.692 28.2437V28.8028H109.077V28.9014C109.025 29.4932 109.229 30.0791 109.639 30.5099C110.048 30.9408 110.622 31.175 111.216 31.1532C112.008 31.2274 112.755 30.7727 113.052 30.035L114.602 30.035ZM113.058 27.6626H109.083C109.082 27.1259 109.295 26.6108 109.675 26.2319C110.055 25.853 110.571 25.6417 111.108 25.6449C111.64 25.6335 112.154 25.8447 112.524 26.2277C112.894 26.6107 113.088 27.1308 113.058 27.6626Z" fill="white"/>
<path fill-rule="evenodd" clip-rule="evenodd" d="M70.4412 13H71.2216V18.4975H70.4412V13ZM53.6154 13.9762C53.1379 13.4719 52.4593 13.2083 51.7665 13.258H49.874V18.4975H51.7665C53.3272 18.4975 54.2319 17.5353 54.2319 15.8614C54.3192 15.1724 54.093 14.4805 53.6154 13.9762ZM51.6768 17.7558H50.689V13.9978H51.6768C52.1693 13.9705 52.6482 14.1646 52.9825 14.5272C53.3169 14.8898 53.4717 15.3828 53.4047 15.8715C53.477 16.3621 53.3244 16.8593 52.9892 17.2248C52.654 17.5904 52.1719 17.7854 51.6768 17.7558ZM55.1513 16.5185C55.0835 15.8098 55.4233 15.1239 56.0283 14.7485C56.6332 14.3731 57.3987 14.3731 58.0036 14.7485C58.6085 15.1239 58.9484 15.8098 58.8806 16.5185C58.9497 17.228 58.6101 17.9152 58.0047 18.2914C57.3992 18.6676 56.6327 18.6676 56.0272 18.2914C55.4217 17.9152 55.0822 17.228 55.1513 16.5185ZM57.0163 15.1604C57.692 15.1604 58.077 15.6616 58.077 16.5187H58.077C58.077 17.3792 57.692 17.88 57.0163 17.88C56.338 17.88 55.9564 17.3827 55.9564 16.5187C55.9564 15.6616 56.338 15.1604 57.0163 15.1604ZM63.8361 18.4971H63.0266L62.2094 15.585H62.1477L61.3339 18.4971H60.5321L59.4422 14.5431H60.2337L60.942 17.5602H61.0003L61.8132 14.5431H62.5618L63.3748 17.5602H63.4365L64.1414 14.5431H64.9217L63.8361 18.4971ZM66.5904 14.5434H65.8392L65.8392 18.4974H66.6195V16.1843C66.5915 15.9211 66.6798 15.6589 66.8613 15.4663C67.0428 15.2737 67.2993 15.1699 67.5636 15.1823C68.1407 15.1823 68.4169 15.4983 68.4169 16.1337V18.4973H69.1972V15.9377C69.2544 15.5511 69.1327 15.1595 68.8665 14.8734C68.6002 14.5873 68.2183 14.4378 67.8286 14.4671C67.3253 14.4262 66.8515 14.7091 66.6487 15.1715H66.5904V14.5434ZM73.1834 14.7485C72.5784 15.1239 72.2385 15.8098 72.3062 16.5186C72.2372 17.2281 72.5768 17.9153 73.1823 18.2915C73.7879 18.6676 74.5544 18.6676 75.1599 18.2915C75.7654 17.9153 76.105 17.2281 76.036 16.5186C76.1037 15.8098 75.7638 15.1239 75.1589 14.7485C74.5539 14.3731 73.7884 14.3731 73.1834 14.7485ZM75.2327 16.5187C75.2327 15.6616 74.8477 15.1604 74.172 15.1604C73.4937 15.1604 73.1121 15.6616 73.1121 16.5187C73.1121 17.3827 73.4937 17.88 74.172 17.88C74.8477 17.88 75.2327 17.3792 75.2327 16.5187ZM78.3284 16.1987C77.3877 16.257 76.8577 16.6673 76.8577 17.379C76.8591 17.7165 77.0031 18.0377 77.2542 18.2631C77.5053 18.4886 77.8401 18.5973 78.1757 18.5624C78.6546 18.5845 79.1083 18.3474 79.3634 17.9416H79.4251V18.4972H80.1763V15.7956C80.1763 14.9604 79.6172 14.4669 78.6259 14.4669C77.729 14.4669 77.0901 14.9025 77.0104 15.5817H77.7658C77.8525 15.3021 78.1543 15.1422 78.5899 15.1422C79.1233 15.1422 79.3994 15.378 79.3994 15.7956V16.1369L78.3284 16.1987ZM79.399 17.0416V16.7111L78.4334 16.7728C77.8889 16.8093 77.642 16.9945 77.642 17.3431C77.642 17.6989 77.9507 17.906 78.3752 17.906C78.6265 17.9314 78.8773 17.8538 79.0703 17.6909C79.2633 17.5279 79.3819 17.2936 79.399 17.0416ZM82.8423 14.4779C81.8433 14.4779 81.201 15.2694 81.201 16.5188C81.201 17.7712 81.8364 18.5627 82.8423 18.5627C83.3522 18.5815 83.8305 18.3157 84.084 17.8728H84.1457V18.4975H84.8934V13H84.1131V15.1716H84.0548C83.8192 14.725 83.3467 14.4547 82.8423 14.4779ZM82.0069 16.5187C82.0069 17.3574 82.4022 17.862 83.0633 17.862C83.721 17.862 84.1275 17.3501 84.1275 16.5221C84.1275 15.6981 83.7167 15.1789 83.0633 15.1789C82.4064 15.1789 82.0068 15.6869 82.0069 16.5187ZM88.999 14.7485C88.394 15.1239 88.0542 15.8098 88.122 16.5185C88.0529 17.228 88.3924 17.9152 88.9979 18.2914C89.6034 18.6676 90.3699 18.6676 90.9754 18.2914C91.5809 17.9152 91.9204 17.228 91.8513 16.5185C91.9191 15.8098 91.5793 15.1239 90.9743 14.7485C90.3694 14.3731 89.6039 14.3731 88.999 14.7485ZM91.0486 16.5187C91.0486 15.6616 90.6636 15.1604 89.9879 15.1604C89.3096 15.1604 88.928 15.6616 88.928 16.5187C88.928 17.3827 89.3096 17.88 89.9879 17.88C90.6636 17.88 91.0486 17.3792 91.0486 16.5187ZM93.6501 14.5442H92.8989V18.4982H93.6793V16.1851C93.6513 15.922 93.7396 15.6597 93.921 15.4671C94.1025 15.2745 94.359 15.1708 94.6234 15.1831C95.2005 15.1831 95.4766 15.4991 95.4766 16.1345V18.4982H96.2569V15.9385C96.3141 15.5519 96.1924 15.1603 95.9262 14.8742C95.66 14.5881 95.2781 14.4386 94.8884 14.4679C94.385 14.427 93.9112 14.7099 93.7084 15.1724H93.6501V14.5442ZM100.666 13.5587V14.5612H101.522V15.2184H100.666V17.2516C100.666 17.6658 100.836 17.8471 101.225 17.8471C101.324 17.8468 101.424 17.8408 101.522 17.8291V18.4791C101.382 18.5042 101.24 18.5175 101.098 18.519C100.23 18.519 99.8845 18.2137 99.8845 17.4514V15.2184H99.2568V14.5611H99.8845V13.5587H100.666ZM103.362 13H102.589L102.589 18.4975H103.369V16.1882C103.345 15.9169 103.442 15.6488 103.634 15.4555C103.826 15.2622 104.093 15.1635 104.365 15.1858C104.916 15.1858 105.21 15.5056 105.21 16.1372V18.4975H105.991V15.9447C106.043 15.5601 105.92 15.1725 105.657 14.8874C105.394 14.6023 105.017 14.4495 104.63 14.4706C104.119 14.4292 103.636 14.7124 103.424 15.1789H103.362V13ZM110.54 17.4297C110.322 18.1755 109.6 18.6574 108.827 18.5736C108.3 18.5875 107.793 18.369 107.441 17.976C107.09 17.583 106.928 17.0552 107.001 16.5327C106.93 16.0088 107.091 15.4802 107.441 15.0839C107.791 14.6876 108.295 14.4625 108.824 14.467C109.924 14.467 110.588 15.2186 110.588 16.4603V16.7326H107.795V16.7763C107.771 17.0697 107.871 17.3599 108.071 17.5756C108.272 17.7912 108.554 17.9123 108.849 17.909C109.23 17.9549 109.602 17.7655 109.789 17.4297L110.54 17.4297ZM109.794 16.1555H107.797C107.793 15.8829 107.9 15.6204 108.093 15.4275C108.286 15.2347 108.548 15.1278 108.821 15.1312C109.09 15.1251 109.349 15.2328 109.534 15.4279C109.72 15.6229 109.814 15.8872 109.794 16.1555Z" fill="white"/>
<path fill-rule="evenodd" clip-rule="evenodd" d="M38.8802 13.2489C38.9652 14.359 38.6142 15.4585 37.9016 16.314C37.2102 17.1738 36.1627 17.6691 35.0594 17.6578C34.9892 16.5796 35.3505 15.5178 36.0637 14.7062C36.7859 13.8835 37.7915 13.3632 38.8802 13.2489ZM42.3703 19.7717C41.1012 20.552 40.3202 21.9279 40.301 23.4176C40.3028 25.103 41.3121 26.6239 42.8644 27.2805C42.5658 28.2503 42.1158 29.1667 41.531 29.996C40.7457 31.1708 39.9223 32.3185 38.6153 32.3397C37.9938 32.3541 37.5742 32.1753 37.137 31.9891C36.681 31.7948 36.2057 31.5924 35.4621 31.5924C34.6735 31.5924 34.177 31.8013 33.6981 32.0029C33.2843 32.177 32.8837 32.3456 32.3191 32.369C31.0744 32.4151 30.1232 31.1152 29.3093 29.9514C27.6825 27.5747 26.4158 23.2536 28.114 20.3134C28.9115 18.8804 30.4026 17.971 32.0417 17.9181C32.7476 17.9035 33.425 18.1756 34.0188 18.4142C34.473 18.5966 34.8784 18.7594 35.2103 18.7594C35.502 18.7594 35.8961 18.603 36.3553 18.4208C37.0786 18.1337 37.9637 17.7824 38.8657 17.8771C40.2672 17.9209 41.566 18.6231 42.3703 19.7717Z" fill="white"/>
</svg>
