<svg width="142" height="48" viewBox="0 0 142 48" fill="none" xmlns="http://www.w3.org/2000/svg">
<rect x="0.75" y="0.75" width="140.5" height="46.5" rx="3.25" fill="white"/>
<rect x="0.75" y="0.75" width="140.5" height="46.5" rx="3.25" stroke="#DFE1E5" stroke-width="1.5"/>
<path fill-rule="evenodd" clip-rule="evenodd" d="M54.6654 26.134V27.5928H58.1665C58.1116 28.2799 57.8259 28.9282 57.356 29.4325C56.6477 30.154 55.6675 30.5425 54.6573 30.5023C52.5088 30.5023 50.7672 28.7606 50.7672 26.6122C50.7672 24.4638 52.5088 22.7221 54.6573 22.7221C55.6442 22.706 56.5973 23.082 57.3074 23.7676L58.3366 22.7383C57.3681 21.7576 56.0437 21.2109 54.6654 21.2228C52.7033 21.1465 50.8567 22.1497 49.8529 23.8373C48.8492 25.525 48.8492 27.6265 49.8529 29.3141C50.8567 31.0018 52.7033 32.005 54.6654 31.9286C56.0689 31.9921 57.4312 31.4454 58.4015 30.4293C59.2505 29.4965 59.7039 28.2701 59.6658 27.0093C59.6684 26.7021 59.6412 26.3954 59.5847 26.0935L54.6654 26.134ZM67.7695 28.528C67.7636 26.6279 69.2975 25.0818 71.1977 25.0729C72.1179 25.0552 73.006 25.4119 73.6583 26.0612C74.3107 26.7105 74.6716 27.5969 74.6582 28.5172C74.6582 30.4174 73.1194 31.9586 71.2192 31.9615C69.3191 31.9645 67.7755 30.4281 67.7695 28.528ZM69.1672 29.424C69.5373 30.1986 70.3433 30.6684 71.1997 30.6085C71.7373 30.596 72.247 30.3669 72.6132 29.9732C72.9795 29.5795 73.1711 29.0546 73.1448 28.5175C73.1427 27.659 72.616 26.889 71.8166 26.5758C71.0172 26.2626 70.1077 26.4699 69.5229 27.0985C68.9382 27.7271 68.7971 28.6493 69.1672 29.424ZM63.653 25.073C61.7518 25.0774 60.2138 26.6215 60.2167 28.5227C60.2197 30.4239 61.7626 31.9631 63.6638 31.9616C65.565 31.9601 67.1054 30.4185 67.1054 28.5173C67.1188 27.597 66.7579 26.7106 66.1055 26.0613C65.4532 25.412 64.5651 25.0553 63.6449 25.073H63.653ZM61.6157 29.4296C61.9884 30.2038 62.7967 30.6712 63.6536 30.6079H63.6455C64.1831 30.5954 64.6928 30.3663 65.059 29.9726C65.4253 29.5789 65.6169 29.054 65.5906 28.517C65.5882 27.6577 65.0605 26.8874 64.2601 26.5749C63.4597 26.2624 62.5497 26.4714 61.9657 27.1017C61.3818 27.732 61.243 28.6554 61.6157 29.4296ZM88.4355 25.0723C89.7791 25.1218 90.9527 25.9956 91.3854 27.2686L91.5556 27.6333L86.9443 29.5378C87.2333 30.1961 87.8954 30.6107 88.6138 30.5833C89.3074 30.585 89.9508 30.2218 90.3076 29.627L91.4827 30.4374C90.843 31.3949 89.7653 31.9672 88.6138 31.961C87.6984 31.9744 86.817 31.6151 86.172 30.9655C85.527 30.3159 85.1738 29.4319 85.1937 28.5167C85.1377 27.6224 85.4544 26.7448 86.0685 26.0923C86.6826 25.4398 87.5394 25.0706 88.4355 25.0723ZM86.6853 28.4198C86.6521 27.9134 86.8242 27.415 87.1626 27.0369C87.5011 26.6588 87.9775 26.4328 88.4845 26.4099C89.0189 26.3747 89.5227 26.6617 89.765 27.1393L86.6853 28.4198ZM84.4564 31.7583H82.9408V21.6279H84.4564V31.7583ZM80.4615 25.8417H80.4048C79.9428 25.3252 79.2824 25.0303 78.5894 25.0313C76.7499 25.1205 75.3042 26.6379 75.3042 28.4796C75.3042 30.3214 76.7499 31.8388 78.5894 31.928C79.2846 31.9397 79.9493 31.643 80.4048 31.1176H80.4534V31.612C80.4534 32.933 79.7483 33.638 78.6137 33.638C77.8408 33.62 77.1555 33.1364 76.8794 32.4143L75.5584 32.9654C76.0671 34.2028 77.2759 35.0076 78.6137 34.9996C80.3886 34.9996 81.8555 33.9541 81.8555 31.4094V25.2744H80.4615V25.8417ZM78.7237 30.6075L78.7262 30.6077H78.7181L78.7237 30.6075ZM80.0893 29.9575C79.7415 30.3511 79.2483 30.5858 78.7237 30.6075C77.6412 30.5108 76.8114 29.6038 76.8114 28.5168C76.8114 27.4289 77.6425 26.5214 78.7262 26.4259C79.2498 26.4527 79.7404 26.6899 80.0868 27.0835C80.4331 27.4772 80.6059 27.994 80.5658 28.5168C80.6105 29.042 80.4383 29.5626 80.0893 29.9575ZM98.4858 21.6285H94.8632V31.7589H96.3787V27.9174H98.4939C99.6712 28.002 100.797 27.4218 101.412 26.414C102.026 25.4062 102.026 24.1396 101.412 23.1318C100.797 22.124 99.6712 21.5439 98.4939 21.6285H98.4858ZM96.3705 26.4907H98.4857L98.5182 26.5151C99.4782 26.5151 100.257 25.7368 100.257 24.7767C100.257 23.8166 99.4782 23.0383 98.5182 23.0383H96.3705V26.4907ZM107.83 25.0322C106.703 24.9648 105.643 25.5728 105.131 26.5801L106.477 27.1393C106.748 26.6398 107.288 26.3474 107.854 26.3937C108.243 26.3484 108.634 26.461 108.938 26.7063C109.243 26.9517 109.437 27.3092 109.475 27.6985V27.8039C108.989 27.5462 108.446 27.4126 107.895 27.4149C106.444 27.4149 104.977 28.2253 104.977 29.6922C105.006 30.3241 105.29 30.9174 105.763 31.3372C106.236 31.757 106.859 31.9675 107.49 31.9209C108.267 31.9767 109.013 31.6038 109.435 30.9484H109.483V31.7588H110.942V27.8606C110.942 26.0858 109.597 25.0565 107.871 25.0565L107.83 25.0322ZM106.461 29.7252C106.461 30.333 107.15 30.5842 107.645 30.5842L107.685 30.6086C108.598 30.5863 109.355 29.8949 109.46 28.9877C109.04 28.753 108.564 28.6354 108.082 28.6473C107.32 28.6473 106.461 28.9147 106.461 29.7252ZM116.258 25.2753L114.524 29.6679H114.475L112.676 25.2753H111.055L113.754 31.4184L112.214 34.8303H113.794L117.944 25.2753H116.258ZM104.151 31.7583H102.635V21.6279H104.151V31.7583Z" fill="#17191C"/>
<path fill-rule="evenodd" clip-rule="evenodd" d="M72.0659 17.3488C73.0522 18.3296 74.6455 18.3296 75.6318 17.3488C76.592 16.3383 76.592 14.7527 75.6318 13.7423C75.1601 13.2672 74.5184 13 73.8489 13C73.1794 13 72.5376 13.2672 72.0659 13.7423C71.1098 14.7544 71.1098 16.3367 72.0659 17.3488ZM53.7988 17.3658C54.2148 16.9315 54.4345 16.3456 54.4066 15.7449C54.4067 15.6226 54.3958 15.5006 54.3742 15.3802H52.0159V15.9637H53.7745C53.7625 16.3312 53.6187 16.6822 53.3693 16.9524C52.8138 17.4894 51.9898 17.6394 51.2808 17.3327C50.5717 17.0261 50.1167 16.3229 50.1276 15.5504C50.1099 15.0392 50.3013 14.5428 50.6576 14.1758C51.0139 13.8088 51.5044 13.6028 52.0159 13.6053C52.5247 13.5775 53.017 13.7907 53.345 14.1808L53.7745 13.7512C53.567 13.5126 53.306 13.3265 53.0127 13.2082C52.6977 13.0734 52.3585 13.0045 52.0159 13.0056C51.3437 12.9906 50.6953 13.2547 50.2248 13.735C49.5007 14.4639 49.2841 15.5557 49.6751 16.5058C50.0661 17.4559 50.9885 18.079 52.0159 18.087C52.6857 18.1109 53.334 17.8486 53.7988 17.3658ZM55.9311 13.718H58.1192V13.1183H55.2827V17.9809H58.1192V17.3812H55.9311V15.8414H57.9247V15.2578H55.9311V13.718ZM60.7776 17.9809H60.1535V13.718H58.792V13.1183H62.1715V13.718H60.7776V17.9809ZM64.5532 13.1183V17.9809H65.1773V13.1183H64.5532ZM67.9504 17.9809H67.3264V13.718H65.9648V13.1183H69.3038V13.718H67.9504V17.9809ZM72.5293 16.9439C73.2597 17.6714 74.4408 17.6714 75.1713 16.9439C75.8887 16.1531 75.8887 14.9469 75.1713 14.1561C74.4408 13.4286 73.2597 13.4286 72.5293 14.1561C71.8119 14.9469 71.8119 16.1531 72.5293 16.9439ZM77.229 13.1183V17.9809H77.8611V14.0179L80.333 17.9809H80.9813V13.1183H80.3573V16.903L77.9908 13.1183H77.229Z" fill="#17191C"/>
<path d="M75.6318 17.3488L75.7553 17.4729L75.7587 17.4693L75.6318 17.3488ZM72.0659 17.3488L71.9386 17.469L71.9425 17.4728L72.0659 17.3488ZM75.6318 13.7423L75.7587 13.6218L75.756 13.619L75.6318 13.7423ZM72.0659 13.7423L71.9417 13.619L71.9387 13.6222L72.0659 13.7423ZM54.4066 15.7449L54.2315 15.7448L54.2318 15.753L54.4066 15.7449ZM53.7988 17.3658L53.9249 17.4871L53.9252 17.4868L53.7988 17.3658ZM54.3742 15.3802L54.5465 15.3493L54.5206 15.2052H54.3742V15.3802ZM52.0159 15.3802V15.2052H51.8409V15.3802H52.0159ZM52.0159 15.9637H51.8409V16.1387H52.0159V15.9637ZM53.7745 15.9637L53.9494 15.9694L53.9553 15.7887H53.7745V15.9637ZM53.3693 16.9524L53.4911 17.0785L53.4979 17.0711L53.3693 16.9524ZM51.2808 17.3327L51.3502 17.1721L51.2808 17.3327ZM50.1276 15.5504L50.3027 15.5528L50.3025 15.5443L50.1276 15.5504ZM50.6576 14.1758L50.532 14.0539L50.6576 14.1758ZM52.0159 13.6053L52.015 13.7807L52.0254 13.7801L52.0159 13.6053ZM53.345 14.1808L53.211 14.2934L53.3338 14.4394L53.4687 14.3045L53.345 14.1808ZM53.7745 13.7512L53.8982 13.875L54.0137 13.7596L53.9066 13.6364L53.7745 13.7512ZM53.0127 13.2082L52.9438 13.3692L52.9472 13.3705L53.0127 13.2082ZM52.0159 13.0056L52.012 13.1806L52.0165 13.1806L52.0159 13.0056ZM50.2248 13.735L50.349 13.8584L50.3498 13.8575L50.2248 13.735ZM49.6751 16.5058L49.5133 16.5724H49.5133L49.6751 16.5058ZM52.0159 18.087L52.0221 17.9121L52.0172 17.912L52.0159 18.087ZM58.1192 13.718V13.893H58.2942V13.718H58.1192ZM55.9311 13.718V13.543H55.7561V13.718H55.9311ZM58.1192 13.1183H58.2942V12.9433H58.1192V13.1183ZM55.2827 13.1183V12.9433H55.1077V13.1183H55.2827ZM55.2827 17.9809H55.1077V18.1559H55.2827V17.9809ZM58.1192 17.9809V18.1559H58.2942V17.9809H58.1192ZM58.1192 17.3812H58.2942V17.2062H58.1192V17.3812ZM55.9311 17.3812H55.7561V17.5562H55.9311V17.3812ZM55.9311 15.8414V15.6664H55.7561V15.8414H55.9311ZM57.9247 15.8414V16.0164H58.0997V15.8414H57.9247ZM57.9247 15.2578H58.0997V15.0828H57.9247V15.2578ZM55.9311 15.2578H55.7561V15.4328H55.9311V15.2578ZM60.1535 17.9809H59.9785V18.1559H60.1535V17.9809ZM60.7776 17.9809V18.1559H60.9526V17.9809H60.7776ZM60.1535 13.718H60.3285V13.543H60.1535V13.718ZM58.792 13.718H58.617V13.893H58.792V13.718ZM58.792 13.1183V12.9433H58.617V13.1183H58.792ZM62.1715 13.1183H62.3465V12.9433H62.1715V13.1183ZM62.1715 13.718V13.893H62.3465V13.718H62.1715ZM60.7776 13.718V13.543H60.6026V13.718H60.7776ZM64.5532 17.9809H64.3782V18.1559H64.5532V17.9809ZM64.5532 13.1183V12.9433H64.3782V13.1183H64.5532ZM65.1773 17.9809V18.1559H65.3523V17.9809H65.1773ZM65.1773 13.1183H65.3523V12.9433H65.1773V13.1183ZM67.3264 17.9809H67.1514V18.1559H67.3264V17.9809ZM67.9504 17.9809V18.1559H68.1254V17.9809H67.9504ZM67.3264 13.718H67.5014V13.543H67.3264V13.718ZM65.9648 13.718H65.7898V13.893H65.9648V13.718ZM65.9648 13.1183V12.9433H65.7898V13.1183H65.9648ZM69.3038 13.1183H69.4788V12.9433H69.3038V13.1183ZM69.3038 13.718V13.893H69.4788V13.718H69.3038ZM67.9504 13.718V13.543H67.7754V13.718H67.9504ZM75.1713 16.9439L75.2949 17.0681L75.3009 17.0615L75.1713 16.9439ZM72.5293 16.9439L72.3995 17.0617L72.4058 17.0679L72.5293 16.9439ZM75.1713 14.1561L75.3011 14.0383L75.2948 14.0321L75.1713 14.1561ZM72.5293 14.1561L72.4056 14.0319L72.3996 14.0385L72.5293 14.1561ZM77.229 17.9809H77.054V18.1559H77.229V17.9809ZM77.229 13.1183V12.9433H77.054V13.1183H77.229ZM77.8611 17.9809V18.1559H78.0361V17.9809H77.8611ZM77.8611 14.0179L78.0096 13.9253L77.6861 13.4066V14.0179H77.8611ZM80.333 17.9809L80.1845 18.0735L80.2359 18.1559H80.333V17.9809ZM80.9813 17.9809V18.1559H81.1563V17.9809H80.9813ZM80.9813 13.1183H81.1563V12.9433H80.9813V13.1183ZM80.3573 13.1183V12.9433H80.1823V13.1183H80.3573ZM80.3573 16.903L80.2089 16.9958L80.5323 17.513V16.903H80.3573ZM77.9908 13.1183L78.1392 13.0255L78.0878 12.9433H77.9908V13.1183ZM75.5084 17.2247C74.5904 18.1376 73.1074 18.1376 72.1893 17.2247L71.9425 17.4728C72.9971 18.5215 74.7006 18.5215 75.7552 17.4728L75.5084 17.2247ZM75.505 13.8629C76.4009 14.8057 76.4009 16.2853 75.505 17.2282L75.7587 17.4693C76.783 16.3913 76.783 14.6997 75.7587 13.6218L75.505 13.8629ZM73.8489 13.175C74.4717 13.175 75.0688 13.4236 75.5076 13.8656L75.756 13.619C75.2515 13.1108 74.565 12.825 73.8489 12.825V13.175ZM72.1901 13.8656C72.6289 13.4236 73.226 13.175 73.8489 13.175V12.825C73.1327 12.825 72.4462 13.1108 71.9417 13.619L72.1901 13.8656ZM72.1931 17.2286C71.3007 16.284 71.3007 14.8071 72.1931 13.8625L71.9387 13.6222C70.9189 14.7016 70.9189 16.3894 71.9387 17.4689L72.1931 17.2286ZM54.2318 15.753C54.2575 16.3058 54.0553 16.845 53.6724 17.2447L53.9252 17.4868C54.3743 17.0179 54.6115 16.3854 54.5815 15.7368L54.2318 15.753ZM54.202 15.4111C54.2218 15.5213 54.2317 15.6329 54.2316 15.7448L54.5816 15.745C54.5817 15.6123 54.5699 15.4799 54.5465 15.3493L54.202 15.4111ZM52.0159 15.5552H54.3742V15.2052H52.0159V15.5552ZM52.1909 15.9637V15.3802H51.8409V15.9637H52.1909ZM53.7745 15.7887H52.0159V16.1387H53.7745V15.7887ZM53.4979 17.0711C53.7758 16.77 53.936 16.3789 53.9494 15.9694L53.5996 15.958C53.589 16.2835 53.4616 16.5944 53.2407 16.8338L53.4979 17.0711ZM51.2113 17.4934C51.9853 17.8281 52.8846 17.6643 53.4909 17.0783L53.2477 16.8266C52.743 17.3144 51.9944 17.4507 51.3502 17.1721L51.2113 17.4934ZM49.9526 15.5479C49.9407 16.3911 50.4373 17.1586 51.2113 17.4934L51.3502 17.1721C50.706 16.8935 50.2927 16.2547 50.3025 15.5528L49.9526 15.5479ZM50.532 14.0539C50.1426 14.4551 49.9334 14.9976 49.9527 15.5564L50.3025 15.5443C50.2865 15.0807 50.46 14.6306 50.7832 14.2977L50.532 14.0539ZM52.0167 13.4303C51.4576 13.4276 50.9215 13.6528 50.532 14.0539L50.7832 14.2977C51.1063 13.9649 51.5511 13.7781 52.015 13.7803L52.0167 13.4303ZM53.4789 14.0681C53.1156 13.6359 52.5701 13.3998 52.0063 13.4306L52.0254 13.7801C52.4793 13.7553 52.9185 13.9454 53.211 14.2934L53.4789 14.0681ZM53.6508 13.6275L53.2212 14.057L53.4687 14.3045L53.8982 13.875L53.6508 13.6275ZM52.9472 13.3705C53.2149 13.4785 53.4531 13.6483 53.6424 13.8661L53.9066 13.6364C53.6809 13.3769 53.3971 13.1746 53.0782 13.0459L52.9472 13.3705ZM52.0165 13.1806C52.3352 13.1796 52.6508 13.2437 52.9438 13.3691L53.0816 13.0473C52.7446 12.9032 52.3818 12.8294 52.0153 12.8306L52.0165 13.1806ZM50.3498 13.8575C50.7864 13.4117 51.3882 13.1667 52.012 13.1806L52.0198 12.8307C51.2992 12.8146 50.6041 13.0977 50.0998 13.6126L50.3498 13.8575ZM49.8369 16.4392C49.4727 15.5543 49.6745 14.5372 50.349 13.8584L50.1007 13.6117C49.3269 14.3905 49.0955 15.5572 49.5133 16.5724L49.8369 16.4392ZM52.0172 17.912C51.0603 17.9046 50.2011 17.3242 49.8369 16.4392L49.5133 16.5724C49.9311 17.5876 50.9167 18.2534 52.0145 18.262L52.0172 17.912ZM53.6727 17.2444C53.2424 17.6914 52.6422 17.9342 52.0221 17.9122L52.0096 18.2619C52.7292 18.2875 53.4256 18.0058 53.9249 17.4871L53.6727 17.2444ZM58.1192 13.543H55.9311V13.893H58.1192V13.543ZM57.9442 13.1183V13.718H58.2942V13.1183H57.9442ZM55.2827 13.2933H58.1192V12.9433H55.2827V13.2933ZM55.4577 17.9809V13.1183H55.1077V17.9809H55.4577ZM58.1192 17.8059H55.2827V18.1559H58.1192V17.8059ZM57.9442 17.3812V17.9809H58.2942V17.3812H57.9442ZM55.9311 17.5562H58.1192V17.2062H55.9311V17.5562ZM55.7561 15.8414V17.3812H56.1061V15.8414H55.7561ZM57.9247 15.6664H55.9311V16.0164H57.9247V15.6664ZM57.7497 15.2578V15.8414H58.0997V15.2578H57.7497ZM55.9311 15.4328H57.9247V15.0828H55.9311V15.4328ZM55.7561 13.718V15.2578H56.1061V13.718H55.7561ZM60.1535 18.1559H60.7776V17.8059H60.1535V18.1559ZM59.9785 13.718V17.9809H60.3285V13.718H59.9785ZM58.792 13.893H60.1535V13.543H58.792V13.893ZM58.617 13.1183V13.718H58.967V13.1183H58.617ZM62.1715 12.9433H58.792V13.2933H62.1715V12.9433ZM62.3465 13.718V13.1183H61.9965V13.718H62.3465ZM60.7776 13.893H62.1715V13.543H60.7776V13.893ZM60.9526 17.9809V13.718H60.6026V17.9809H60.9526ZM64.7282 17.9809V13.1183H64.3782V17.9809H64.7282ZM65.1773 17.8059H64.5532V18.1559H65.1773V17.8059ZM65.0023 13.1183V17.9809H65.3523V13.1183H65.0023ZM64.5532 13.2933H65.1773V12.9433H64.5532V13.2933ZM67.3264 18.1559H67.9504V17.8059H67.3264V18.1559ZM67.1514 13.718V17.9809H67.5014V13.718H67.1514ZM65.9648 13.893H67.3264V13.543H65.9648V13.893ZM65.7898 13.1183V13.718H66.1398V13.1183H65.7898ZM69.3038 12.9433H65.9648V13.2933H69.3038V12.9433ZM69.4788 13.718V13.1183H69.1288V13.718H69.4788ZM67.9504 13.893H69.3038V13.543H67.9504V13.893ZM68.1254 17.9809V13.718H67.7754V17.9809H68.1254ZM75.0478 16.8199C74.3856 17.4794 73.3149 17.4794 72.6527 16.8199L72.4058 17.0679C73.2045 17.8634 74.496 17.8634 75.2948 17.0679L75.0478 16.8199ZM75.0417 14.2736C75.6985 14.9978 75.6985 16.1022 75.0417 16.8264L75.3009 17.0615C76.0788 16.204 76.0788 14.896 75.3009 14.0385L75.0417 14.2736ZM72.6527 14.2801C73.3149 13.6206 74.3856 13.6206 75.0478 14.2801L75.2948 14.0321C74.496 13.2366 73.2045 13.2366 72.4058 14.0321L72.6527 14.2801ZM72.6589 16.8264C72.002 16.1022 72.002 14.9978 72.6589 14.2736L72.3996 14.0385C71.6217 14.896 71.6217 16.204 72.3996 17.0615L72.6589 16.8264ZM77.404 17.9809V13.1183H77.054V17.9809H77.404ZM77.8611 17.8059H77.229V18.1559H77.8611V17.8059ZM77.6861 14.0179V17.9809H78.0361V14.0179H77.6861ZM80.4814 17.8883L78.0096 13.9253L77.7127 14.1105L80.1845 18.0735L80.4814 17.8883ZM80.9813 17.8059H80.333V18.1559H80.9813V17.8059ZM80.8063 13.1183V17.9809H81.1563V13.1183H80.8063ZM80.3573 13.2933H80.9813V12.9433H80.3573V13.2933ZM80.5323 16.903V13.1183H80.1823V16.903H80.5323ZM77.8424 13.2111L80.2089 16.9958L80.5057 16.8102L78.1392 13.0255L77.8424 13.2111ZM77.229 13.2933H77.9908V12.9433H77.229V13.2933Z" fill="#17191C"/>
<path d="M24.4367 13.5558C24.1726 13.8727 24.0393 14.2785 24.0639 14.6904V32.6171C24.0393 33.029 24.1726 33.4348 24.4367 33.7517L24.4935 33.8085L34.5347 23.7753V23.5403L24.4935 13.499L24.4367 13.5558Z" fill="url(#paint0_linear_998_51)"/>
<path d="M37.8584 27.1229L34.5356 23.7758V23.5407L37.8584 20.1855L37.9314 20.2261L41.9106 22.4872C43.0452 23.1274 43.0452 24.181 41.9106 24.8293L37.9476 27.0823L37.8584 27.1229Z" fill="url(#paint1_linear_998_51)"/>
<path d="M37.9565 27.0743L34.5365 23.6543L24.4385 33.7523C24.9156 34.1717 25.6237 34.1921 26.1242 33.8009L37.9646 27.0743" fill="url(#paint2_linear_998_51)"/>
<path d="M37.9553 20.2334L26.1149 13.5068C25.6144 13.1156 24.9063 13.136 24.4292 13.5554L34.5353 23.6534L37.9553 20.2334Z" fill="url(#paint3_linear_998_51)"/>
<path opacity="0.2" d="M37.8592 27.001L26.1161 33.687C25.6355 34.0463 24.9758 34.0463 24.4952 33.687L24.4385 33.7438L24.4952 33.8005C24.9749 34.1625 25.6364 34.1625 26.1161 33.8005L37.9565 27.0739L37.8592 27.001Z" fill="#17191C"/>
<path opacity="0.12" fill-rule="evenodd" clip-rule="evenodd" d="M37.8575 27.0014L41.9096 24.7079C42.3284 24.5012 42.6277 24.1121 42.7201 23.6543C42.6783 24.1603 42.3692 24.6054 41.9096 24.8213L37.9304 27.0743L37.8575 27.0014ZM24.0622 32.6618C24.0756 33.0184 24.2064 33.3623 24.4367 33.6387L24.4935 33.7035L24.4367 33.7602C24.1803 33.4525 24.0472 33.0612 24.0622 32.6618ZM24.0622 32.6618C24.0626 32.6497 24.0632 32.6377 24.0639 32.6256V32.504C24.0608 32.5568 24.0602 32.6094 24.0622 32.6618Z" fill="#17191C"/>
<path opacity="0.25" d="M26.1147 13.6204L41.91 22.6C42.3287 22.8067 42.6281 23.1958 42.7204 23.6536C42.6787 23.1475 42.3696 22.7024 41.91 22.4866L26.1147 13.507C24.98 12.8667 24.0562 13.4016 24.0562 14.6983V14.8199C24.0805 13.5151 24.9881 12.9802 26.1147 13.6204Z" fill="#17191C"/>
<defs>
<linearGradient id="paint0_linear_998_51" x1="30.1367" y1="1.31905" x2="14.0582" y2="5.59517" gradientUnits="userSpaceOnUse">
<stop stop-color="#00A0FF"/>
<stop offset="0.01" stop-color="#00A1FF"/>
<stop offset="0.26" stop-color="#00BEFF"/>
<stop offset="0.51" stop-color="#00D2FF"/>
<stop offset="0.76" stop-color="#00DFFF"/>
<stop offset="1" stop-color="#00E3FF"/>
</linearGradient>
<linearGradient id="paint1_linear_998_51" x1="43.3937" y1="15.3875" x2="23.7893" y2="15.3875" gradientUnits="userSpaceOnUse">
<stop stop-color="#FFE000"/>
<stop offset="0.41" stop-color="#FFBD00"/>
<stop offset="0.78" stop-color="#FFA500"/>
<stop offset="1" stop-color="#FF9C00"/>
</linearGradient>
<linearGradient id="paint2_linear_998_51" x1="24.1418" y1="18.4088" x2="11.2264" y2="40.1337" gradientUnits="userSpaceOnUse">
<stop stop-color="#FF3A44"/>
<stop offset="1" stop-color="#C31162"/>
</linearGradient>
<linearGradient id="paint3_linear_998_51" x1="16.5518" y1="10.7643" x2="22.3166" y2="20.4655" gradientUnits="userSpaceOnUse">
<stop stop-color="#32A071"/>
<stop offset="0.07" stop-color="#2DA771"/>
<stop offset="0.48" stop-color="#15CF74"/>
<stop offset="0.8" stop-color="#06E775"/>
<stop offset="1" stop-color="#00F076"/>
</linearGradient>
</defs>
</svg>
