<svg width="32" height="32" viewBox="0 0 32 32" fill="none" xmlns="http://www.w3.org/2000/svg">
<mask id="mask0_1292_4806" style="mask-type:alpha" maskUnits="userSpaceOnUse" x="0" y="0" width="32" height="32">
<rect width="32" height="32" fill="#D9D9D9"/>
</mask>
<g mask="url(#mask0_1292_4806)">
<path d="M15.9998 27.0999C15.6887 27.0999 15.3721 27.0443 15.0498 26.9332C14.7276 26.8221 14.4443 26.6443 14.1998 26.3999L11.8998 24.2999C9.54428 22.1443 7.4165 20.0054 5.5165 17.8832C3.6165 15.761 2.6665 13.4221 2.6665 10.8665C2.6665 8.77765 3.3665 7.0332 4.7665 5.6332C6.1665 4.2332 7.91095 3.5332 9.99984 3.5332C11.1776 3.5332 12.2887 3.7832 13.3332 4.2832C14.3776 4.7832 15.2665 5.46654 15.9998 6.3332C16.7332 5.46654 17.6221 4.7832 18.6665 4.2832C19.7109 3.7832 20.8221 3.5332 21.9998 3.5332C24.0887 3.5332 25.8332 4.2332 27.2332 5.6332C28.6332 7.0332 29.3332 8.77765 29.3332 10.8665C29.3332 13.4221 28.3887 15.7665 26.4998 17.8999C24.6109 20.0332 22.4665 22.1776 20.0665 24.3332L17.7998 26.3999C17.5554 26.6443 17.2721 26.8221 16.9498 26.9332C16.6276 27.0443 16.3109 27.0999 15.9998 27.0999Z" fill="#FC0000"/>
</g>
</svg>
