<svg width="32" height="32" viewBox="0 0 32 32" fill="none" xmlns="http://www.w3.org/2000/svg">
<mask id="mask0_1305_1429" style="mask-type:alpha" maskUnits="userSpaceOnUse" x="0" y="0" width="32" height="32">
<rect width="32" height="32" fill="#D9D9D9"/>
</mask>
<g mask="url(#mask0_1305_1429)">
<path d="M5.33341 29.3337C4.60008 29.3337 3.9723 29.0725 3.45008 28.5503C2.92786 28.0281 2.66675 27.4003 2.66675 26.667V13.3337C2.66675 12.6003 2.92786 11.9725 3.45008 11.4503C3.9723 10.9281 4.60008 10.667 5.33341 10.667H8.00008V4.00033C8.00008 3.62255 8.12786 3.30588 8.38341 3.05033C8.63897 2.79477 8.95564 2.66699 9.33341 2.66699H17.3334C17.7112 2.66699 18.0279 2.79477 18.2834 3.05033C18.539 3.30588 18.6667 3.62255 18.6667 4.00033V6.66699C18.6667 7.04477 18.539 7.36144 18.2834 7.61699C18.0279 7.87255 17.7112 8.00033 17.3334 8.00033H10.6667V17.3337C10.6667 17.7114 10.7945 18.0281 11.0501 18.2837C11.3056 18.5392 11.6223 18.667 12.0001 18.667C12.3779 18.667 12.6945 18.5392 12.9501 18.2837C13.2056 18.0281 13.3334 17.7114 13.3334 17.3337V10.667H26.6667C27.4001 10.667 28.0279 10.9281 28.5501 11.4503C29.0723 11.9725 29.3334 12.6003 29.3334 13.3337V26.667C29.3334 27.4003 29.0723 28.0281 28.5501 28.5503C28.0279 29.0725 27.4001 29.3337 26.6667 29.3337H5.33341Z" fill="#E07529"/>
</g>
</svg>
