<svg width="70" height="32" viewBox="0 0 70 32" fill="none" xmlns="http://www.w3.org/2000/svg">
<g clip-path="url(#clip0_3091_416)">
<path fill-rule="evenodd" clip-rule="evenodd" d="M15.9043 4.47417e-07C19.0509 -0.000747829 22.127 0.937103 24.7436 2.69494C27.3602 4.45277 29.3997 6.95163 30.6043 9.87546C31.8089 12.7993 32.1243 16.0168 31.5108 19.121C30.8972 22.2251 29.3823 25.0766 27.1574 27.3147C24.9326 29.5527 22.0979 31.0769 19.0118 31.6944C15.9257 32.3119 12.7269 31.995 9.81988 30.7837C6.91287 29.5725 4.42828 27.5213 2.68034 24.8896C0.932399 22.2579 -0.000371779 19.164 1.11159e-07 15.9991C0.000498646 11.7563 1.67623 7.68748 4.6587 4.68724C7.64117 1.687 11.6862 0.00100355 15.9043 4.47417e-07ZM11.5563 16.9808H20.4497V14.7544H11.5563V16.9808ZM22.3792 22.9185H20.3538V18.6H11.4604V22.9185H9.44065V8.92073H11.4604V13.139H20.3538V8.91506H22.3792V22.9185Z" fill="white"/>
<path d="M35.2313 10.4736H38.1105C39.1975 10.4736 39.7805 11.0108 39.7805 11.8375C39.7787 12.0565 39.7105 12.2697 39.5852 12.4488C39.4599 12.6279 39.2834 12.7643 39.079 12.84C39.3296 12.9244 39.5461 13.0885 39.6958 13.3076C39.8454 13.5267 39.92 13.7889 39.9084 14.0544C39.9084 14.9226 39.3104 15.4882 38.1594 15.4882H35.2313V10.4736ZM36.4029 11.4402V12.4295H37.9206C38.3268 12.4295 38.5656 12.2744 38.5656 11.9358C38.5656 11.5972 38.3343 11.4402 37.9206 11.4402H36.4029ZM36.4029 13.398V14.5197H37.9488C38.4396 14.5197 38.701 14.3306 38.701 13.9523C38.701 13.5739 38.4472 13.3848 37.9488 13.3848L36.4029 13.398Z" fill="white"/>
<path d="M43.8407 13.2145V10.4736H45.0199V13.2921C45.0199 14.5765 44.198 15.5942 42.639 15.5942C41.0386 15.5942 40.245 14.5916 40.245 13.2921V10.4736H41.4392V13.2145C41.4392 13.9844 41.868 14.4989 42.639 14.4989C43.4101 14.4989 43.8407 13.9844 43.8407 13.2145Z" fill="white"/>
<path d="M45.6104 10.4736H46.8045V15.4882H45.6104V10.4736Z" fill="white"/>
<path d="M51.5587 15.4882H47.4214V10.4736H48.6156V14.4289H51.5587V15.4882Z" fill="white"/>
<path d="M50.4906 10.4736H55.4554V11.5197H53.5748V15.492H52.3881V11.5197H50.5075L50.4906 10.4736Z" fill="white"/>
<path d="M56.6289 12.9801C56.6289 11.4404 57.7798 10.3887 59.2768 10.3887C60.7738 10.3887 61.9097 11.4404 61.9097 12.9801C61.9097 14.5199 60.7568 15.5735 59.2768 15.5735C57.7968 15.5735 56.6289 14.5142 56.6289 12.9801ZM60.7023 12.9801C60.7023 12.1403 60.1532 11.4669 59.2768 11.4669C58.4004 11.4669 57.8438 12.1365 57.8438 12.9801C57.8438 13.8238 58.3986 14.4934 59.2768 14.4934C60.155 14.4934 60.7023 13.8295 60.7023 12.9801Z" fill="white"/>
<path d="M67.1377 15.5109H66.1692L63.448 12.0342V15.4882H62.282V10.4736H63.6379L65.9962 13.5456V10.4736H67.1377V15.5109Z" fill="white"/>
<path d="M39.4928 20.0109H36.6907V22.2808H35.3197V16.5322H36.6907V18.8021H39.4928V16.5322H40.8562V22.2902H39.4928V20.0109Z" fill="white"/>
<path d="M41.5614 16.5322H46.3513V17.6672H42.9248V18.7057H44.9634V19.8614H42.9248V21.0947H46.6579V22.2864H41.5614V16.5322Z" fill="white"/>
<path d="M46.9475 16.5322H49.319C51.1488 16.5322 52.4539 17.5215 52.4539 19.4112C52.4539 21.2688 51.1488 22.2902 49.319 22.2902H46.9475V16.5322ZM48.3185 17.7164V21.1061H49.2945C50.3495 21.1061 51.0604 20.4819 51.0604 19.4037C51.0604 18.2914 50.3495 17.7012 49.2945 17.7012L48.3185 17.7164Z" fill="white"/>
<path d="M52.8733 16.5322H57.6632V17.6672H54.2443V18.7057H56.2847V19.8614H54.2443V21.0947H57.9773V22.2864H52.8733V16.5322Z" fill="white"/>
<path d="M58.2688 16.5322H61.6219C62.8876 16.5322 63.6624 17.147 63.6624 18.3406C63.6823 18.6916 63.5863 19.0393 63.3894 19.3297C63.1924 19.6202 62.9056 19.837 62.5735 19.9465L63.8636 22.2902H62.4212L61.2119 20.0998H59.6379V22.2902H58.2688V16.5322ZM59.6379 17.7164V18.9402H61.4771C61.9849 18.9402 62.2594 18.7378 62.2594 18.3406C62.2594 17.9017 61.9924 17.7164 61.4771 17.7164H59.6379Z" fill="white"/>
<path d="M68.1213 21.294H65.3963L64.9675 22.2909H63.589L66.0977 16.5234H67.5007L70 22.2909H68.5482L68.1213 21.294ZM67.6285 20.142L66.7616 18.1048L65.8909 20.142H67.6285Z" fill="white"/>
</g>
<defs>
<clipPath id="clip0_3091_416">
<rect width="70" height="32" fill="white"/>
</clipPath>
</defs>
</svg>
