<svg width="84" height="24" viewBox="0 0 84 24" fill="none" xmlns="http://www.w3.org/2000/svg">
<g clip-path="url(#clip0_1986_1183)">
<path d="M11.6266 0.205306L3.60627 4.87071C3.11936 5.15361 2.56974 5.30889 2.00778 5.32233C1.44582 5.33577 0.889502 5.20693 0.389809 4.94762C0.359927 4.93198 0.325206 4.92854 0.292874 4.93804C0.260542 4.94753 0.233091 4.96922 0.216235 4.99858C0.19938 5.02795 0.194419 5.06273 0.202385 5.09569C0.210351 5.12864 0.23063 5.15724 0.259001 5.17551L12.2085 12.9381C12.2232 12.9477 12.2354 12.9609 12.2438 12.9765C12.2522 12.992 12.2566 13.0094 12.2566 13.0271V13.1482C12.2565 13.1664 12.2518 13.1842 12.243 13.2C12.2341 13.2158 12.2214 13.229 12.206 13.2385C12.1906 13.2479 12.173 13.2532 12.155 13.2538C12.137 13.2545 12.1192 13.2505 12.1031 13.2422L0.353748 7.15462C0.324087 7.14042 0.290207 7.13798 0.258839 7.14778C0.227471 7.15758 0.20091 7.1789 0.184434 7.20752C0.167958 7.23613 0.162772 7.26994 0.169906 7.30223C0.177039 7.33452 0.195971 7.36293 0.22294 7.3818L12.2021 15.1786C12.2169 15.1882 12.229 15.2014 12.2374 15.217C12.2458 15.2325 12.2502 15.2499 12.2502 15.2676V15.3595C12.2501 15.3776 12.2455 15.3955 12.2366 15.4113C12.2277 15.4271 12.215 15.4403 12.1996 15.4497C12.1842 15.4592 12.1667 15.4645 12.1487 15.4651C12.1307 15.4658 12.1128 15.4618 12.0968 15.4535L0.315567 9.36163C0.285656 9.34425 0.250117 9.33955 0.216768 9.34857C0.183418 9.35758 0.154991 9.37957 0.137738 9.4097C0.120486 9.43982 0.115822 9.47562 0.124773 9.50921C0.133723 9.5428 0.155555 9.57143 0.185466 9.58881L12.2057 17.4226C12.2204 17.4323 12.2325 17.4454 12.2409 17.461C12.2493 17.4765 12.2537 17.494 12.2537 17.5117V17.5736C12.2538 17.5918 12.2492 17.6097 12.2404 17.6256C12.2316 17.6415 12.2189 17.6549 12.2034 17.6644C12.188 17.6739 12.1705 17.6793 12.1524 17.68C12.1343 17.6806 12.1164 17.6766 12.1003 17.6683L0.283041 11.5686C0.25338 11.5544 0.2195 11.552 0.188132 11.5618C0.156764 11.5716 0.130203 11.5929 0.113727 11.6215C0.0972508 11.6501 0.0920646 11.6839 0.0991985 11.7162C0.106332 11.7485 0.125264 11.7769 0.152233 11.7958L12.2021 19.666C12.2169 19.6756 12.229 19.6888 12.2374 19.7043C12.2458 19.7199 12.2502 19.7373 12.2502 19.755V19.7863C12.2503 19.8045 12.2457 19.8224 12.2369 19.8383C12.228 19.8542 12.2153 19.8676 12.1999 19.8771C12.1845 19.8866 12.1669 19.892 12.1489 19.8927C12.1308 19.8933 12.1129 19.8893 12.0968 19.881L0.245567 13.7756C0.215773 13.761 0.181582 13.7583 0.149902 13.7681C0.118222 13.7779 0.0914144 13.7995 0.0748953 13.8284C0.0583763 13.8573 0.0533773 13.8915 0.0609079 13.924C0.0684385 13.9565 0.0879375 13.9849 0.115466 14.0035L12.2021 21.9086C12.217 21.918 12.2293 21.9312 12.2377 21.9468C12.2461 21.9624 12.2504 21.9799 12.2502 21.9976C12.2501 22.0157 12.2453 22.0335 12.2365 22.0493C12.2276 22.0651 12.2149 22.0783 12.1996 22.0878C12.1842 22.0973 12.1667 22.1027 12.1488 22.1035C12.1308 22.1042 12.1129 22.1004 12.0968 22.0923L0.212334 15.9848C0.182424 15.9674 0.146885 15.9627 0.113535 15.9717C0.0801862 15.9807 0.0517585 16.0027 0.034506 16.0328C0.0172536 16.063 0.0125897 16.0988 0.0215403 16.1324C0.0304909 16.1659 0.0523227 16.1946 0.0822332 16.212L11.6075 23.7609C11.8005 23.8874 12.0244 23.9575 12.2545 23.9637C12.4846 23.9699 12.712 23.9117 12.9113 23.7958L22.0905 18.4588C22.2795 18.3493 22.4367 18.1918 22.5464 18.002C22.6561 17.8122 22.7144 17.5967 22.7156 17.3771V6.65255C22.7156 6.43209 22.6579 6.21553 22.5484 6.02463C22.439 5.83373 22.2815 5.67523 22.0919 5.56507L12.8738 0.205306C12.6842 0.0951161 12.4691 0.0371094 12.2502 0.0371094C12.0313 0.0371094 11.8162 0.0951161 11.6266 0.205306Z" fill="#564CD8"/>
<path d="M83.2597 16.5664C83.2628 16.5058 83.2516 16.4453 83.227 16.3898C83.2024 16.3344 83.1652 16.2856 83.1183 16.2474C83.0038 16.1641 82.8641 16.1233 82.723 16.132H82.0054V17.7031H82.3384V17.0564H82.6361C82.6728 17.0531 82.7098 17.0577 82.7445 17.07C82.7793 17.0823 82.811 17.1019 82.8376 17.1276C82.8846 17.191 82.9073 17.2695 82.9012 17.3484V17.5193C82.9012 17.5635 82.9012 17.6005 82.9012 17.6311C82.9027 17.6563 82.9062 17.6813 82.9118 17.7059H83.2491C83.2442 17.6667 83.2399 17.6347 83.2364 17.6019C83.2329 17.5745 83.2311 17.5469 83.2307 17.5193V17.2601C83.2338 17.2121 83.2263 17.1639 83.2088 17.1191C83.1913 17.0743 83.1643 17.034 83.1296 17.0009C83.0891 16.9657 83.0405 16.9412 82.9882 16.9296C83.1699 16.8563 83.2597 16.7359 83.2597 16.5664ZM82.7047 16.7894H82.3384V16.4098H82.7047C82.7637 16.4054 82.8223 16.4223 82.8701 16.4575C82.8893 16.4747 82.9043 16.4961 82.9139 16.52C82.9236 16.544 82.9277 16.5698 82.926 16.5956C82.9275 16.6222 82.9231 16.6488 82.9131 16.6735C82.903 16.6981 82.8876 16.7202 82.868 16.7381C82.8214 16.7743 82.7634 16.7925 82.7047 16.7894Z" fill="#17191C"/>
<path d="M83.8584 16.384C83.72 16.0547 83.4598 15.7927 83.1329 15.6533C82.9648 15.583 82.7846 15.5469 82.6026 15.5469C82.4206 15.5469 82.2404 15.583 82.0723 15.6533C81.7454 15.7927 81.4852 16.0547 81.3469 16.384C81.2771 16.5533 81.2412 16.7348 81.2412 16.9181C81.2412 17.1014 81.2771 17.2829 81.3469 17.4522C81.4852 17.7815 81.7454 18.0435 82.0723 18.1829C82.2404 18.2532 82.4206 18.2893 82.6026 18.2893C82.7846 18.2893 82.9648 18.2532 83.1329 18.1829C83.4606 18.0425 83.7209 17.7788 83.8584 17.4479C83.9983 17.1058 83.9983 16.7218 83.8584 16.3797V16.384ZM83.6335 17.3554C83.5763 17.4901 83.4946 17.6128 83.3924 17.7171C83.2913 17.8209 83.1712 17.9041 83.0389 17.9621C82.9016 18.02 82.7543 18.0497 82.6054 18.0497C82.4566 18.0497 82.3093 18.02 82.172 17.9621C82.0396 17.9042 81.9195 17.821 81.8185 17.7171C81.7161 17.613 81.6343 17.4902 81.5774 17.3554C81.5199 17.2165 81.4903 17.0675 81.4903 16.917C81.4903 16.7666 81.5199 16.6176 81.5774 16.4787C81.6346 16.344 81.7164 16.2213 81.8185 16.1169C81.9195 16.0132 82.0396 15.9303 82.172 15.8726C82.3093 15.8148 82.4566 15.785 82.6054 15.785C82.7543 15.785 82.9016 15.8148 83.0389 15.8726C83.1712 15.9304 83.2912 16.0134 83.3924 16.1169C83.4942 16.2215 83.576 16.3442 83.6335 16.4787C83.691 16.6176 83.7206 16.7666 83.7206 16.917C83.7206 17.0675 83.691 17.2165 83.6335 17.3554Z" fill="#17191C"/>
<path d="M32.7854 8.33206L29.9154 12.4626L32.0366 4.50061C32.0467 4.46271 32.048 4.42298 32.0404 4.3845C32.0328 4.34602 32.0165 4.30981 31.9928 4.27869C31.9691 4.24757 31.9385 4.22236 31.9036 4.20502C31.8686 4.18769 31.8302 4.17868 31.7912 4.17871H29.6722C29.6163 4.17879 29.562 4.19738 29.5177 4.23162C29.4733 4.26585 29.4414 4.31383 29.4268 4.36815L25.8695 17.7384C25.8594 17.7762 25.8581 17.8158 25.8657 17.8542C25.8732 17.8926 25.8895 17.9287 25.9131 17.9598C25.9368 17.9908 25.9672 18.016 26.0021 18.0333C26.037 18.0506 26.0753 18.0596 26.1142 18.0595H28.2311C28.287 18.0595 28.3413 18.0409 28.3856 18.0066C28.43 17.9724 28.4619 17.9244 28.4765 17.8701L29.6517 13.4547L30.3262 17.8459C30.3361 17.9057 30.3668 17.96 30.4127 17.9992C30.4587 18.0383 30.517 18.0597 30.5772 18.0595H32.8398C32.8778 18.0596 32.9153 18.0511 32.9495 18.0346C32.9838 18.0181 33.0139 17.994 33.0377 17.9642C33.0614 17.9344 33.0782 17.8996 33.0868 17.8623C33.0954 17.8251 33.0956 17.7864 33.0873 17.749L32.055 13.021C32.0464 12.9841 32.0461 12.9459 32.0541 12.9089C32.062 12.872 32.078 12.8373 32.1009 12.8073L35.2686 8.6326C35.2974 8.59473 35.315 8.54952 35.3196 8.50208C35.3242 8.45464 35.3155 8.40686 35.2945 8.36412C35.2736 8.32139 35.2412 8.2854 35.201 8.26023C35.1608 8.23506 35.1144 8.22171 35.0671 8.22168H32.9933C32.9523 8.22172 32.912 8.23179 32.8758 8.25102C32.8396 8.27025 32.8086 8.29806 32.7854 8.33206Z" fill="#17191C"/>
<path d="M45.5857 8.38369L42.9795 14.749L43.5932 8.50618C43.5966 8.47093 43.5927 8.43534 43.5818 8.40168C43.5709 8.36802 43.5531 8.33701 43.5296 8.31063C43.5062 8.28425 43.4775 8.26307 43.4455 8.24843C43.4135 8.23379 43.3788 8.22601 43.3436 8.22559H41.1071C41.0576 8.22558 41.0091 8.24013 40.9677 8.26745C40.9262 8.29478 40.8936 8.33369 40.8738 8.37941L38.1282 14.749L38.8763 8.51188C38.8804 8.47611 38.8769 8.43988 38.8662 8.40556C38.8554 8.37124 38.8375 8.33959 38.8138 8.3127C38.79 8.28581 38.7609 8.26428 38.7283 8.24951C38.6957 8.23474 38.6604 8.22708 38.6246 8.22701H36.5465C36.4818 8.22691 36.4194 8.25181 36.3724 8.29658C36.3253 8.34136 36.297 8.4026 36.2934 8.46772L35.7553 17.79C35.7533 17.8247 35.7583 17.8595 35.7702 17.8921C35.782 17.9248 35.8003 17.9547 35.824 17.98C35.8477 18.0053 35.8763 18.0254 35.908 18.0392C35.9397 18.0529 35.9739 18.0599 36.0085 18.0599H38.4443C38.4939 18.0598 38.5424 18.0452 38.5839 18.0177C38.6253 17.9903 38.6579 17.9512 38.6776 17.9053L41.3186 11.6988L40.6709 17.7772C40.6667 17.813 40.6701 17.8493 40.6808 17.8838C40.6916 17.9182 40.7095 17.9499 40.7334 17.9768C40.7573 18.0038 40.7865 18.0253 40.8193 18.04C40.852 18.0547 40.8875 18.0622 40.9233 18.062H43.3528C43.4003 18.0623 43.447 18.0491 43.4874 18.0239C43.5278 17.9987 43.5603 17.9626 43.5812 17.9196L48.0039 8.59662C48.0224 8.55764 48.0308 8.51456 48.0284 8.47142C48.0259 8.42827 48.0126 8.38647 47.9897 8.3499C47.9668 8.31334 47.9351 8.28322 47.8975 8.26235C47.8599 8.24148 47.8177 8.23055 47.7748 8.23057H45.8183C45.769 8.23046 45.7206 8.2449 45.6793 8.2721C45.638 8.29931 45.6054 8.33809 45.5857 8.38369Z" fill="#17191C"/>
<path d="M49.2376 8.41449L46.7572 17.7382C46.7471 17.776 46.7458 17.8157 46.7534 17.8542C46.761 17.8926 46.7773 17.9288 46.801 17.9599C46.8248 17.9909 46.8553 18.0161 46.8903 18.0333C46.9252 18.0506 46.9637 18.0595 47.0026 18.0594H49.1188C49.1747 18.0593 49.229 18.0407 49.2733 18.0065C49.3177 17.9722 49.3496 17.9242 49.3642 17.8699L51.8439 8.54553C51.8541 8.50768 51.8555 8.46797 51.848 8.42948C51.8405 8.39099 51.8243 8.35476 51.8006 8.32362C51.777 8.29247 51.7465 8.26724 51.7115 8.2499C51.6766 8.23256 51.6382 8.22357 51.5992 8.22363H49.4823C49.4263 8.22371 49.3719 8.24249 49.3276 8.27703C49.2834 8.31156 49.2517 8.35991 49.2376 8.41449Z" fill="#17191C"/>
<path d="M52.7342 4.17578H50.5027C50.4468 4.1757 50.3924 4.19433 50.3481 4.22874C50.3038 4.26316 50.2722 4.31142 50.2581 4.36593L49.6054 6.83644C49.594 6.88042 49.5944 6.92667 49.6066 6.97044C49.6188 7.01422 49.6423 7.05394 49.6748 7.08554C49.7072 7.11714 49.7475 7.13947 49.7913 7.15026C49.8351 7.16105 49.8811 7.15991 49.9243 7.14694L52.3503 6.40914C52.3917 6.39654 52.4292 6.37351 52.4592 6.34223C52.4893 6.31095 52.5109 6.27245 52.5221 6.23038L52.9796 4.49982C52.99 4.46178 52.9916 4.42182 52.9842 4.38306C52.9768 4.3443 52.9606 4.3078 52.9368 4.27641C52.913 4.24502 52.8824 4.2196 52.8472 4.20215C52.8121 4.18469 52.7734 4.17566 52.7342 4.17578Z" fill="#17191C"/>
<path d="M58.3017 17.749L57.2686 13.021C57.2604 12.9841 57.2603 12.9458 57.2684 12.9089C57.2764 12.872 57.2924 12.8373 57.3153 12.8073L60.4823 8.6326C60.511 8.59473 60.5287 8.54952 60.5332 8.50208C60.5378 8.45464 60.5291 8.40686 60.5082 8.36412C60.4872 8.32139 60.4548 8.2854 60.4146 8.26023C60.3745 8.23506 60.3281 8.22171 60.2808 8.22168H58.2076C58.1668 8.22168 58.1266 8.23158 58.0905 8.25055C58.0543 8.26952 58.0232 8.29699 57.9997 8.33064L55.1305 12.4626L57.2517 4.50061C57.2618 4.46271 57.2631 4.42298 57.2555 4.3845C57.2479 4.34602 57.2316 4.30981 57.2078 4.27869C57.1841 4.24757 57.1536 4.22236 57.1187 4.20502C57.0837 4.18769 57.0453 4.17868 57.0063 4.17871H54.8865C54.8307 4.17871 54.7765 4.19728 54.7322 4.23154C54.688 4.2658 54.6562 4.31382 54.6419 4.36815L51.0839 17.7384C51.0738 17.7762 51.0725 17.8159 51.0801 17.8544C51.0877 17.8928 51.104 17.929 51.1277 17.9601C51.1514 17.9911 51.182 18.0163 51.2169 18.0335C51.2519 18.0508 51.2903 18.0597 51.3292 18.0595H53.4455C53.5014 18.0596 53.5558 18.041 53.6001 18.0068C53.6445 17.9725 53.6764 17.9245 53.6909 17.8701L54.8667 13.4547L55.5413 17.8459C55.551 17.9056 55.5815 17.9599 55.6274 17.9991C55.6733 18.0382 55.7315 18.0597 55.7916 18.0595H58.0542C58.0921 18.0595 58.1295 18.0508 58.1637 18.0343C58.1979 18.0178 58.2279 17.9937 58.2517 17.9639C58.2754 17.9341 58.2922 17.8994 58.3009 17.8622C58.3095 17.825 58.3098 17.7863 58.3017 17.749Z" fill="#17191C"/>
<path d="M68.953 10.3367C68.9134 9.59749 68.7265 9.02776 68.3923 8.62752C68.058 8.22729 67.5845 8.02788 66.9717 8.0293C66.345 8.03355 65.733 8.22136 65.2104 8.56984C64.8078 8.82914 64.4651 9.17256 64.2057 9.57684L64.48 8.5442C64.4901 8.5063 64.4914 8.46657 64.4838 8.42809C64.4762 8.38961 64.4599 8.3534 64.4362 8.32228C64.4125 8.29116 64.382 8.26595 64.347 8.24861C64.3121 8.23128 64.2736 8.22227 64.2347 8.2223H62.2139C62.1581 8.2223 62.1038 8.24087 62.0596 8.27513C62.0153 8.30939 61.9836 8.35741 61.9692 8.41174L58.4374 21.6915C58.4273 21.7293 58.426 21.7689 58.4335 21.8073C58.4411 21.8457 58.4573 21.8819 58.481 21.9129C58.5047 21.944 58.5351 21.9691 58.57 21.9864C58.6048 22.0037 58.6432 22.0127 58.682 22.0127H60.799C60.8548 22.0127 60.9091 21.9941 60.9533 21.9599C60.9976 21.9256 61.0293 21.8776 61.0437 21.8233L62.3263 17.004C62.3924 17.265 62.5272 17.5032 62.7166 17.6934C63.0899 18.0661 63.5573 18.2524 64.1187 18.2524C64.7442 18.2524 65.3431 18.0405 65.9154 17.6165C66.4876 17.1925 67.0062 16.585 67.4709 15.7941C67.9367 15.0035 68.3114 14.0746 68.5952 13.0073C68.8719 11.9662 68.9911 11.076 68.953 10.3367ZM65.8525 13.1035C65.5791 14.1319 65.2646 14.8934 64.9092 15.3881C64.5538 15.8828 64.1659 16.1304 63.7454 16.1309C63.324 16.1309 63.068 15.8935 62.9775 15.4187C62.887 14.944 62.977 14.1983 63.2476 13.1818C63.5205 12.1535 63.8347 11.3917 64.1901 10.8965C64.5455 10.4013 64.9337 10.1539 65.3547 10.1544C65.7761 10.1544 66.0328 10.3889 66.1247 10.858C66.2166 11.3271 66.1259 12.0756 65.8525 13.1035Z" fill="#17191C"/>
<path d="M74.5599 4.17578H72.3284C72.2724 4.17566 72.2179 4.19427 72.1735 4.22867C72.1291 4.26308 72.0973 4.31136 72.0831 4.36593L71.4304 6.83643C71.4188 6.88045 71.419 6.9268 71.4311 6.97069C71.4432 7.01458 71.4668 7.05441 71.4993 7.08607C71.5318 7.11773 71.5721 7.14007 71.6161 7.15077C71.66 7.16147 71.706 7.16015 71.7493 7.14694L74.1753 6.40629C74.2167 6.39369 74.2542 6.37066 74.2842 6.33938C74.3143 6.3081 74.3359 6.2696 74.3471 6.22753L74.8053 4.49697C74.8152 4.45912 74.8164 4.41947 74.8088 4.38108C74.8011 4.34269 74.7848 4.30658 74.7611 4.27554C74.7374 4.24451 74.7069 4.21937 74.672 4.20208C74.6372 4.18478 74.5988 4.17578 74.5599 4.17578Z" fill="#17191C"/>
<path d="M71.0606 8.4145L68.5858 17.7382C68.5757 17.776 68.5744 17.8157 68.582 17.8542C68.5896 17.8926 68.6059 17.9288 68.6297 17.9599C68.6534 17.991 68.6839 18.0161 68.7189 18.0334C68.7538 18.0506 68.7923 18.0595 68.8312 18.0594H70.9475C71.0034 18.0594 71.0577 18.0409 71.1021 18.0066C71.1464 17.9724 71.1783 17.9243 71.1928 17.8699L73.6697 8.54554C73.6798 8.50764 73.6811 8.46791 73.6735 8.42943C73.6659 8.39095 73.6496 8.35474 73.6259 8.32362C73.6021 8.2925 73.5716 8.26729 73.5367 8.24995C73.5017 8.23262 73.4633 8.22361 73.4243 8.22364H71.3081C71.2516 8.22321 71.1966 8.24174 71.1518 8.27631C71.107 8.31087 71.0749 8.3595 71.0606 8.4145Z" fill="#17191C"/>
<path d="M82.1063 8.22524H80.0324C79.9924 8.22562 79.9531 8.23549 79.9176 8.25405C79.8821 8.27261 79.8514 8.29934 79.8281 8.33206L76.9553 12.4626L79.0765 4.50061C79.0866 4.46271 79.0879 4.42298 79.0803 4.3845C79.0727 4.34602 79.0564 4.30981 79.0326 4.27869C79.0089 4.24757 78.9784 4.22236 78.9435 4.20502C78.9085 4.18769 78.8701 4.17868 78.8311 4.17871H76.7149C76.659 4.17867 76.6046 4.19722 76.5602 4.23147C76.5159 4.26572 76.484 4.31377 76.4695 4.36815L72.9115 17.7412C72.9014 17.7791 72.9001 17.8188 72.9077 17.8572C72.9153 17.8957 72.9316 17.9318 72.9553 17.9629C72.9791 17.994 73.0096 18.0191 73.0446 18.0364C73.0795 18.0536 73.118 18.0625 73.1569 18.0624H75.2738C75.3297 18.0624 75.3839 18.0438 75.4281 18.0096C75.4724 17.9753 75.5042 17.9273 75.5185 17.873L76.6944 13.4575L77.3689 17.8487C77.3788 17.9085 77.4095 17.9629 77.4554 18.002C77.5014 18.0411 77.5597 18.0625 77.6199 18.0624H79.8825C79.9205 18.0623 79.9579 18.0537 79.992 18.0372C80.0262 18.0206 80.0563 17.9966 80.08 17.9668C80.1038 17.937 80.1206 17.9022 80.1292 17.865C80.1379 17.8279 80.1381 17.7892 80.13 17.7519L79.0977 13.0231C79.0891 12.9863 79.0888 12.948 79.0968 12.9111C79.1047 12.8741 79.1207 12.8394 79.1436 12.8095L82.3113 8.63545C82.34 8.59733 82.3576 8.55187 82.3619 8.50422C82.3662 8.45657 82.3572 8.40865 82.3358 8.36592C82.3145 8.32318 82.2816 8.28734 82.2411 8.26247C82.2005 8.2376 82.1538 8.2247 82.1063 8.22524Z" fill="#17191C"/>
</g>
<defs>
<clipPath id="clip0_1986_1183">
<rect width="84" height="24" fill="white"/>
</clipPath>
</defs>
</svg>
