<svg id="Layer_1" data-name="Layer 1" xmlns="http://www.w3.org/2000/svg" viewBox="0 0 1283.8 429.05"><defs><style>.cls-1{fill:#fff;}</style></defs><path class="cls-1" d="M212.43,48.88,99,114.39a47.5,47.5,0,0,1-45.49,1.08h0a1.85,1.85,0,0,0-1.85,3.2l169,109a1.49,1.49,0,0,1,.68,1.25v1.7a1.49,1.49,0,0,1-2.17,1.32L53,146.46a1.85,1.85,0,0,0-1.85,3.19L220.57,259.13a1.49,1.49,0,0,1,.68,1.25v1.29a1.49,1.49,0,0,1-2.17,1.32L52.46,177.45a1.84,1.84,0,0,0-1.84,3.19l170,110a1.49,1.49,0,0,1,.68,1.25v.87a1.49,1.49,0,0,1-2.17,1.33L52,208.44a1.85,1.85,0,0,0-1.85,3.19L220.57,322.14a1.49,1.49,0,0,1,.68,1.25v.44a1.49,1.49,0,0,1-2.17,1.33L51.47,239.43a1.85,1.85,0,0,0-1.84,3.2l170.94,111a1.46,1.46,0,0,1,.68,1.25h0a1.5,1.5,0,0,1-2.17,1.33L51,270.45a1.84,1.84,0,0,0-1.84,3.19l163,106a17.64,17.64,0,0,0,18.44.49l129.82-74.94A17.63,17.63,0,0,0,369.26,290V139.41a17.63,17.63,0,0,0-8.82-15.27L230.07,48.88A17.65,17.65,0,0,0,212.43,48.88Z"/><path class="cls-1" d="M1225.53,278.62a5.41,5.41,0,0,0-2-4.48,8.64,8.64,0,0,0-5.59-1.62h-10.15v22.06h4.71V285.5h4.21a3.64,3.64,0,0,1,2.85,1,4.59,4.59,0,0,1,.9,3.1V292c0,.62,0,1.14,0,1.57a6.27,6.27,0,0,0,.15,1.05h4.77c-.07-.55-.13-1-.18-1.46a10.29,10.29,0,0,1-.08-1.16v-3.64a4.61,4.61,0,0,0-1.43-3.64,4.56,4.56,0,0,0-2-1C1224.26,282.69,1225.53,281,1225.53,278.62Zm-7.85,3.13h-5.18v-5.33h5.18a3.53,3.53,0,0,1,2.34.67,2.38,2.38,0,0,1,.79,1.94,2.5,2.5,0,0,1-.82,2A3.48,3.48,0,0,1,1217.68,281.75Z"/><path class="cls-1" d="M1234,276.06a19.32,19.32,0,0,0-10.26-10.26,19.57,19.57,0,0,0-15,0,19.32,19.32,0,0,0-10.26,10.26,19.57,19.57,0,0,0,0,15,19.32,19.32,0,0,0,10.26,10.26,19.57,19.57,0,0,0,15,0A19.32,19.32,0,0,0,1234,291a19.69,19.69,0,0,0,0-15Zm-3.18,13.64a16.44,16.44,0,0,1-3.41,5.08,15.92,15.92,0,0,1-5,3.44,15.89,15.89,0,0,1-12.26,0,15.81,15.81,0,0,1-5-3.44,16.27,16.27,0,0,1-3.41-5.08,16,16,0,0,1,0-12.31,16.5,16.5,0,0,1,3.41-5.08,15.78,15.78,0,0,1,5-3.43,15.89,15.89,0,0,1,12.26,0,15.89,15.89,0,0,1,5,3.43,16.68,16.68,0,0,1,3.41,5.08,16,16,0,0,1,0,12.31Z"/><path class="cls-1" d="M511.68,163,471.09,221l30-111.8a3.59,3.59,0,0,0-3.47-4.52H467.65a3.6,3.6,0,0,0-3.47,2.66L413.87,295.08a3.58,3.58,0,0,0,3.46,4.51h29.94a3.6,3.6,0,0,0,3.47-2.66l16.62-62,9.54,61.66a3.59,3.59,0,0,0,3.55,3h32a3.58,3.58,0,0,0,3.5-4.36l-14.6-66.39a3.58,3.58,0,0,1,.65-3l44.8-58.62a3.59,3.59,0,0,0-2.85-5.77H514.62A3.57,3.57,0,0,0,511.68,163Z"/><path class="cls-1" d="M692.71,163.72,655.85,253.1l8.68-87.66A3.59,3.59,0,0,0,661,161.5H629.37a3.6,3.6,0,0,0-3.3,2.16L587.24,253.1l10.58-87.58a3.59,3.59,0,0,0-3.56-4H564.87a3.58,3.58,0,0,0-3.58,3.38L553.68,295.8a3.58,3.58,0,0,0,3.58,3.79h34.45a3.6,3.6,0,0,0,3.3-2.17l37.35-87.15-9.16,85.35a3.58,3.58,0,0,0,3.57,4h34.36a3.57,3.57,0,0,0,3.23-2l62.55-130.91a3.59,3.59,0,0,0-3.24-5.14H696A3.58,3.58,0,0,0,692.71,163.72Z"/><path class="cls-1" d="M744.36,164.16,709.28,295.08a3.58,3.58,0,0,0,3.47,4.51h29.93a3.6,3.6,0,0,0,3.47-2.66L781.22,166a3.58,3.58,0,0,0-3.46-4.52H747.82A3.58,3.58,0,0,0,744.36,164.16Z"/><path class="cls-1" d="M793.81,104.64H762.25a3.57,3.57,0,0,0-3.46,2.67L749.56,142a3.6,3.6,0,0,0,4.51,4.36L788.38,136a3.59,3.59,0,0,0,2.43-2.51l6.47-24.3A3.59,3.59,0,0,0,793.81,104.64Z"/><path class="cls-1" d="M872.55,295.23l-14.61-66.39a3.62,3.62,0,0,1,.66-3l44.79-58.62a3.59,3.59,0,0,0-2.85-5.77H871.22a3.59,3.59,0,0,0-2.94,1.53L827.7,221l30-111.8a3.59,3.59,0,0,0-3.47-4.52H824.25a3.58,3.58,0,0,0-3.46,2.66L770.47,295.08a3.58,3.58,0,0,0,3.47,4.51h29.93a3.59,3.59,0,0,0,3.47-2.66l16.63-62,9.54,61.66a3.58,3.58,0,0,0,3.54,3h32A3.59,3.59,0,0,0,872.55,295.23Z"/><path class="cls-1" d="M1023.19,191.15q-.84-15.57-7.93-24t-20.09-8.4a45.68,45.68,0,0,0-24.91,7.59,47.18,47.18,0,0,0-14.21,14.14l3.88-14.5a3.59,3.59,0,0,0-3.47-4.52H927.88a3.58,3.58,0,0,0-3.46,2.66L874.47,350.59a3.58,3.58,0,0,0,3.46,4.51h29.94a3.58,3.58,0,0,0,3.46-2.66l18.14-67.67a21,21,0,0,0,5.52,9.68q7.92,7.85,19.83,7.85,13.27,0,25.41-8.93t22-25.59q9.88-16.65,15.9-39.13Q1024,206.72,1023.19,191.15ZM979.34,230q-5.8,21.66-13.34,32.08t-16.46,10.43q-8.94,0-10.86-10t3.82-31.41q5.79-21.66,13.33-32.09t16.47-10.42q8.94,0,10.89,9.88T979.34,230Z"/><path class="cls-1" d="M1102.49,104.64h-31.56a3.58,3.58,0,0,0-3.47,2.67L1058.23,142a3.59,3.59,0,0,0,4.51,4.36l34.31-10.4a3.59,3.59,0,0,0,2.43-2.51l6.48-24.3A3.59,3.59,0,0,0,1102.49,104.64Z"/><path class="cls-1" d="M1053,164.16,1018,295.08a3.58,3.58,0,0,0,3.47,4.51h29.93a3.59,3.59,0,0,0,3.47-2.66L1089.9,166a3.59,3.59,0,0,0-3.47-4.52H1056.5A3.59,3.59,0,0,0,1053,164.16Z"/><path class="cls-1" d="M1209.22,161.5h-29.33A3.6,3.6,0,0,0,1177,163L1136.37,221l30-111.8a3.59,3.59,0,0,0-3.47-4.52h-29.93a3.59,3.59,0,0,0-3.47,2.66l-50.32,187.78a3.58,3.58,0,0,0,3.47,4.51h29.94a3.58,3.58,0,0,0,3.46-2.66l16.63-62,9.54,61.66a3.59,3.59,0,0,0,3.55,3h32a3.59,3.59,0,0,0,3.5-4.36l-14.6-66.4a3.58,3.58,0,0,1,.65-3l44.8-58.61A3.59,3.59,0,0,0,1209.22,161.5Z"/></svg>